<svg xmlns="http://www.w3.org/2000/svg" width="1200" height="630" viewBox="0 0 1200 630" role="img" aria-label="Randomly Pick zh-cn thumbnail">
  <defs>
    <linearGradient id="bg" x1="0" y1="0" x2="1" y2="1">
      <stop offset="0%" stop-color="#f8fafc"/>
      <stop offset="100%" stop-color="#e2e8f0"/>
    </linearGradient>
    <filter id="shadow" x="-50%" y="-50%" width="200%" height="200%">
      <feDropShadow dx="0" dy="14" stdDeviation="18" flood-color="#0f172a" flood-opacity="0.18"/>
    </filter>
  </defs>

  <rect width="1200" height="630" fill="url(#bg)"/>

  <g transform="translate(860 315)" filter="url(#shadow)">
    <circle r="190" fill="#ffffff" stroke="#cbd5e1" stroke-width="10"/>
    <path d="M0 0 L0 -180 A180 180 0 0 1 155 -90 Z" fill="#f1f5f9"/>
    <path d="M0 0 L155 -90 A180 180 0 0 1 155 90 Z" fill="#e2e8f0"/>
    <path d="M0 0 L155 90 A180 180 0 0 1 0 180 Z" fill="#f1f5f9"/>
    <path d="M0 0 L0 180 A180 180 0 0 1 -155 90 Z" fill="#e2e8f0"/>
    <path d="M0 0 L-155 90 A180 180 0 0 1 -155 -90 Z" fill="#f1f5f9"/>
    <path d="M0 0 L-155 -90 A180 180 0 0 1 0 -180 Z" fill="#e2e8f0"/>
    <circle r="38" fill="#0f172a"/>
    <text x="0" y="8" text-anchor="middle" fill="#ffffff" font-size="20" font-family="Inter, Arial, sans-serif" font-weight="700">GO</text>
    <polygon points="0,-228 18,-198 -18,-198" fill="#0f172a"/>
  </g>

  <text x="100" y="250" fill="#0f172a" font-size="72" font-family="Inter, Arial, sans-serif" font-weight="800">Randomly Pick</text>
  <text x="100" y="318" fill="#334155" font-size="42" font-family="Inter, Arial, sans-serif" font-weight="600">Random Tools (简体中文)</text>
  <text x="100" y="378" fill="#64748b" font-size="30" font-family="Inter, Arial, sans-serif">Locale: zh-cn</text>

  <rect x="100" y="430" width="280" height="70" rx="35" fill="#0f172a"/>
  <text x="240" y="476" text-anchor="middle" fill="#ffffff" font-size="30" font-family="Inter, Arial, sans-serif" font-weight="700">START</text>
</svg>
